# xmcd CD database file
#
# Track frame offsets:
#	182
#	3785
#	27137
#	32592
#	68975
#	87867
#	92057
#	126715
#	130612
#	154170
#	171117
#	174242
#	201330
#	204685
#	225032
#	229005
#
# Disc length: 3411 seconds
#
# Revision: 0
# Processed by: cddbd v1.5.1PL2 Copyright (c) Steve Scherf et al.
# Submitted via: CDex 1.51
#
DISCID=c30d5110
DTITLE=Bert van den Brink - Deepest To Dearest
DYEAR=1989
DGENRE=Jazz
TTITLE0=Interlude to Deepest To Dearest
TTITLE1=Deepest To Dearest
TTITLE2=Interlude to My Foolish Heart
TTITLE3=My Foolish Heart
TTITLE4=Song Of Delilah
TTITLE5=Interlude to Landscapes
TTITLE6=Landscapes
TTITLE7=Interlude to Girls Of 13
TTITLE8=Girls Of 13
TTITLE9=Saint Thomas
TTITLE10=Interlude to Sno"Peas
TTITLE11=Sno'Peas
TTITLE12=Interlude to Shivering
TTITLE13=Shivering
TTITLE14=Interlude to Wondering Why
TTITLE15=Wondering Why
EXTD=YEAR: 1989
EXTT0=
EXTT1=
EXTT2=
EXTT3=
EXTT4=
EXTT5=
EXTT6=
EXTT7=
EXTT8=
EXTT9=
EXTT10=
EXTT11=
EXTT12=
EXTT13=
EXTT14=
EXTT15=
PLAYORDER=
